# xmcd CD database file
#
# Track frame offsets:
#	150
#	14464
#	28884
#	43678
#	57496
#	70844
#	84223
#	96293
#	109790
#	122984
#	137298
#	151232
#	165614
#	180285
#	194547
#	208326
#	221541
#	235180
#	247269
#	259386
#	273318
#	286449
#
# Disc length: 3985 seconds
#
# Revision: 0
# Processed by: cddbd v1.4PL0 Copyright (c) Steve Scherf et al.
# Submitted via: CDex 1.50
#
DISCID=480f8f16
DTITLE=Various Artist - Kentucky Gospel
DYEAR=2000
DGENRE=Country
TTITLE0=Alfred G. Karnes  - Called to the Foreign Field 
TTITLE1=Alfred G. Karnes  - I Am Bound for the Promised Land 
TTITLE2=Alfred G. Karnes  - Where We'll Never Grow Old 
TTITLE3=Alfred G. Karnes  - When They Ring the Golden Bells 
TTITLE4=Alfred G. Karnes  - To the Work 
TTITLE5=Alfred G. Karnes  - Do Not Wait 'Till I'm Laid 'Neath the Clay 
TTITLE6=Alfred G. Karnes  - The Days of My Childhood Plays 
TTITLE7=Alfred G. Karnes  - We Shall All Be Reunited 
TTITLE8=Ernest Phiipps and His Holiness Quartet  - I Want to Go Where Jesus Is 
TTITLE9=Ernest Phiipps and His Holiness Quartet  - Do Lord, Remember Me 
TTITLE10=Ernest Phiipps and His Holiness Quartet  - Old Ship of Zion 
TTITLE11=Ernest Phiipps and His Holiness Quartet  - Jesus Getting Us Ready for That Great Day 
TTITLE12=Ernest Phiipps and His Holiness Quartet  - Happy in Prison 
TTITLE13=Ernest Phiipps and His Holiness Quartet  - Don't Grieve After Me 
TTITLE14=McVay And Johnson  - Ain't Going to Lay My Armor Down 
TTITLE15=McVay And Johnson  - I'll Be Ready When the Bridegroom Comes 
TTITLE16=Ernest Phiipps and His Holiness Singers  - If the Light Has Gone Out in Your Soul 
TTITLE17=Ernest Phiipps and His Holiness Singers  - Went up to the Clouds of Heaven 
TTITLE18=Ernest Phiipps and His Holiness Singers  - I Know That Jesus Set Me Free 
TTITLE19=Ernest Phiipps and His Holiness Singers  - Shine on Me 
TTITLE20=Ernest Phiipps and His Holiness Singers  - Bright Tomorrow 
TTITLE21=Ernest Phiipps and His Holiness Singers  - A Little Talk With Jesus 
EXTD=YEAR: 2000
EXTT0=
EXTT1=
EXTT2=
EXTT3=
EXTT4=
EXTT5=
EXTT6=
EXTT7=
EXTT8=
EXTT9=
EXTT10=
EXTT11=
EXTT12=
EXTT13=
EXTT14=
EXTT15=
EXTT16=
EXTT17=
EXTT18=
EXTT19=
EXTT20=
EXTT21=
PLAYORDER=
